<?xml version="1.0" encoding="iso-8859-1"?>
<!-- Generator: Adobe Illustrator 16.0.0, SVG Export Plug-In . SVG Version: 6.00 Build 0)  -->
<!DOCTYPE svg PUBLIC "-//W3C//DTD SVG 1.1//EN" "http://www.w3.org/Graphics/SVG/1.1/DTD/svg11.dtd">
<svg version="1.1" id="Capa_1" xmlns="http://www.w3.org/2000/svg" xmlns:xlink="http://www.w3.org/1999/xlink" x="0px" y="0px"
	 width="26.688px" height="26.688px" viewBox="0 0 26.688 26.688" style="enable-background:new 0 0 26.688 26.688;"
	 xml:space="preserve">
<g>
	<g>
		<path d="M20.969,0H5.719C2.566,0,0,2.564,0,5.719v15.25c0,3.154,2.565,5.719,5.719,5.719h15.25c3.153,0,5.72-2.563,5.72-5.719
			V5.719C26.688,2.565,24.122,0,20.969,0z M25.418,20.969c0,2.452-1.996,4.447-4.449,4.447H5.719c-2.452,0-4.448-1.995-4.448-4.447
			V5.719c0-2.452,1.996-4.447,4.448-4.447h15.25c2.453,0,4.449,1.995,4.449,4.447V20.969z"/>
		<path d="M19.399,10.019c-0.431-4.811-6.35-3.396-7.3-0.657C11.15,6.625,5.231,5.209,4.8,10.019
			c-0.554,6.19,7.299,9.818,7.299,9.818S19.952,16.209,19.399,10.019z"/>
		<path d="M22.399,3.415c-0.658,0-1.191,0.534-1.191,1.192c0,0.418,0.229,0.769,0.556,0.98v9.681l-2.883,3.626
			c-0.43-0.059-0.879,0.082-1.168,0.446l-1.55,1.947c-0.437,0.551-0.346,1.351,0.204,1.785c0.234,0.188,0.514,0.277,0.791,0.277
			c0.374,0,0.744-0.163,0.995-0.479l1.55-1.949c0.29-0.364,0.326-0.832,0.172-1.238l3.022-3.799l0.139-0.396V5.587
			c0.327-0.212,0.556-0.563,0.556-0.98C23.59,3.949,23.057,3.415,22.399,3.415z"/>
		<circle cx="5.096" cy="22.081" r="0.836"/>
		<circle cx="8.041" cy="22.081" r="0.836"/>
	</g>
</g>
<g>
</g>
<g>
</g>
<g>
</g>
<g>
</g>
<g>
</g>
<g>
</g>
<g>
</g>
<g>
</g>
<g>
</g>
<g>
</g>
<g>
</g>
<g>
</g>
<g>
</g>
<g>
</g>
<g>
</g>
</svg>
